<?xml version="1.0" encoding="UTF-8"?>
<svg version="1.1" xmlns="http://www.w3.org/2000/svg" width="512" height="512">
<path d="M0 0 C1.01790619 0.00215515 2.03581238 0.0043103 3.08456421 0.00653076 C17.69363523 0.05620146 32.02575853 0.30709809 46.375 3.3125 C47.34985352 3.51117676 48.32470703 3.70985352 49.32910156 3.91455078 C97.7109774 14.03517194 141.69928269 35.9516877 177.375 70.3125 C178.3640332 71.26068604 178.3640332 71.26068604 179.37304688 72.22802734 C188.86130305 81.37247479 197.6012044 90.66984009 205.375 101.3125 C206.23306152 102.46355017 207.09113451 103.61459177 207.94921875 104.765625 C213.98736829 112.95680614 219.34595521 121.47054105 224.375 130.3125 C224.73948242 130.94430176 225.10396484 131.57610352 225.47949219 132.22705078 C247.08534998 169.97532572 256.85198095 212.74189997 256.6875 255.9375 C256.68534485 256.95540619 256.6831897 257.97331238 256.68096924 259.02206421 C256.63129854 273.63113523 256.38040191 287.96325853 253.375 302.3125 C253.07698486 303.77478027 253.07698486 303.77478027 252.77294922 305.26660156 C242.65232806 353.6484774 220.7358123 397.63678269 186.375 433.3125 C185.74287598 433.97185547 185.11075195 434.63121094 184.45947266 435.31054688 C175.31502521 444.79880305 166.01765991 453.5387044 155.375 461.3125 C154.22394983 462.17056152 153.07290823 463.02863451 151.921875 463.88671875 C143.73224019 469.92427396 135.22961724 475.30707302 126.375 480.3125 C125.66778809 480.7146875 124.96057617 481.116875 124.23193359 481.53125 C101.09654164 494.5566741 75.92537591 503.30551461 49.9375 508.625 C49.21860596 508.77235596 48.49971191 508.91971191 47.7590332 509.0715332 C33.08339502 511.86090125 18.55831162 512.66142619 3.64770508 512.62817383 C0.70811513 512.6250221 -2.2304558 512.64854926 -5.16992188 512.67382812 C-18.54306192 512.71848737 -31.43916711 511.51301542 -44.625 509.3125 C-46.33055054 509.03031616 -46.33055054 509.03031616 -48.07055664 508.74243164 C-91.33802759 500.97044532 -132.38793216 480.98345309 -165.625 452.3125 C-166.37007813 451.67828125 -167.11515625 451.0440625 -167.8828125 450.390625 C-181.38779833 438.57948485 -194.05918743 425.82889772 -204.625 411.3125 C-205.48149066 410.16255169 -206.33826433 409.01281411 -207.1953125 407.86328125 C-213.23534209 399.67315742 -218.61867614 391.16870382 -223.625 382.3125 C-224.0271875 381.60528809 -224.429375 380.89807617 -224.84375 380.16943359 C-237.8691741 357.03404164 -246.61801461 331.86287591 -251.9375 305.875 C-252.08485596 305.15610596 -252.23221191 304.43721191 -252.3840332 303.6965332 C-255.35789088 288.05024391 -255.99800362 272.57681954 -255.9375 256.6875 C-255.93534485 255.66959381 -255.9331897 254.65168762 -255.93096924 253.60293579 C-255.88129854 238.99386477 -255.63040191 224.66174147 -252.625 210.3125 C-252.42632324 209.33764648 -252.22764648 208.36279297 -252.02294922 207.35839844 C-241.90232806 158.9765226 -219.9858123 114.98821731 -185.625 79.3125 C-184.99287598 78.65314453 -184.36075195 77.99378906 -183.70947266 77.31445312 C-174.56502521 67.82619695 -165.26765991 59.0862956 -154.625 51.3125 C-153.47394983 50.45443848 -152.32290823 49.59636549 -151.171875 48.73828125 C-142.98224019 42.70072604 -134.47961724 37.31792698 -125.625 32.3125 C-124.91778809 31.9103125 -124.21057617 31.508125 -123.48193359 31.09375 C-100.34654164 18.0683259 -75.17537591 9.31948539 -49.1875 4 C-48.46860596 3.85264404 -47.74971191 3.70528809 -47.0090332 3.5534668 C-31.36274391 0.57960912 -15.88931954 -0.06050362 0 0 Z M-124.97062683 125.77230835 C-127.46793374 131.11629314 -127.15734293 136.12692552 -127.0949707 141.95556641 C-127.0971611 143.22773514 -127.0993515 144.49990387 -127.10160828 145.81062317 C-127.10701264 149.2879089 -127.08765775 152.76465879 -127.06350732 156.24184847 C-127.04216485 159.88479707 -127.04280422 163.52774466 -127.04081726 167.17074585 C-127.03437672 173.28547349 -127.01315475 179.40000057 -126.98168945 185.51464844 C-126.94136532 193.36111556 -126.92399483 201.20745221 -126.91438007 209.05401039 C-126.90607591 215.80535941 -126.8888433 222.55668087 -126.86934257 229.30800581 C-126.86529546 230.75593723 -126.86155562 232.20386954 -126.8581202 233.65180254 C-126.84682251 238.41066807 -126.82665081 243.16940707 -126.80200195 247.92822266 C-126.79931305 249.12936203 -126.79662415 250.3305014 -126.79385376 251.56803894 C-126.78669846 252.66712082 -126.77954315 253.7662027 -126.77217102 254.89859009 C-126.76789754 255.85314905 -126.76362406 256.80770802 -126.75922108 257.79119301 C-126.63579276 260.1097609 -126.2807314 262.09249315 -125.625 264.3125 C-126.285 264.3125 -126.945 264.3125 -127.625 264.3125 C-132.71881116 274.12135512 -137.14964765 284.05089056 -141.25 294.30859375 C-141.84768525 295.79641285 -142.44542399 297.28421046 -143.04321289 298.77198792 C-144.28127199 301.85847113 -145.51397349 304.94703456 -146.74365234 308.03686523 C-148.3165287 311.98581722 -149.91021161 315.92602421 -151.50872803 319.86465359 C-152.74480632 322.92040236 -153.96615866 325.98187988 -155.18353271 329.04512215 C-155.76504723 330.50125932 -156.35192629 331.95526667 -156.94439697 333.40698051 C-157.76892063 335.43142315 -158.57228651 337.46310082 -159.37109375 339.49780273 C-159.83185303 340.64804428 -160.2926123 341.79828583 -160.76733398 342.98338318 C-161.76561762 346.85832142 -161.56890341 349.44059675 -160.625 353.3125 C-158.43508403 355.89547781 -156.65668312 357.79665844 -153.625 359.3125 C-151.10593107 359.40803197 -148.61466276 359.44265437 -146.09542847 359.43275452 C-145.30967756 359.43360894 -144.52392666 359.43446337 -143.71436512 359.43534368 C-141.06720369 359.43699789 -138.42010487 359.43147806 -135.77294922 359.42602539 C-133.88105267 359.42574348 -131.98915601 359.42590133 -130.09725952 359.4264679 C-124.9487723 359.42675572 -119.80030821 359.4208614 -114.65182638 359.41389394 C-109.27595225 359.40765791 -103.90007763 359.4070564 -98.52420044 359.40586853 C-88.33862971 359.40275595 -78.15306968 359.39454355 -67.96750367 359.38451904 C-56.37396709 359.37335563 -44.78043002 359.36784688 -33.18688941 359.36282361 C-9.33292034 359.35236088 14.52103923 359.33476285 38.375 359.3125 C38.35928955 360.04364014 38.3435791 360.77478027 38.32739258 361.52807617 C38.26489649 364.8519716 38.22596248 368.1757432 38.1875 371.5 C38.16236328 372.65048828 38.13722656 373.80097656 38.11132812 374.98632812 C38.10166016 376.09814453 38.09199219 377.20996094 38.08203125 378.35546875 C38.0663208 379.37664795 38.05061035 380.39782715 38.03442383 381.44995117 C38.51085988 385.45440476 39.89122522 388.12770281 43.06020927 390.65814304 C48.62129158 393.44572603 53.38561163 393.8793141 59.55126953 393.81420898 C60.53766418 393.81961197 61.52405884 393.82501495 62.54034424 393.83058167 C65.77981159 393.84302335 69.01838242 393.82661019 72.2578125 393.80859375 C74.51887051 393.80874882 76.77992878 393.8102391 79.04098511 393.81300354 C83.77011931 393.81438541 88.49894945 393.80186261 93.22802734 393.77905273 C99.28526144 393.75063653 105.34199181 393.75341726 111.39926338 393.76614285 C116.06444594 393.77310118 120.72951231 393.76530944 125.39468002 393.75288582 C127.62816802 393.74837514 129.86166851 393.74803116 132.09515762 393.75195122 C135.21620473 393.7548657 138.33655992 393.73834554 141.45751953 393.71655273 C142.8369725 393.72330521 142.8369725 393.72330521 144.24429321 393.73019409 C149.36788232 393.67083573 152.9478967 393.17934224 157.375 390.3125 C161.91200332 385.28500983 162.52376329 382.16006433 162.52217102 375.56428528 C162.52768605 374.35019007 162.52768605 374.35019007 162.5333125 373.11156768 C162.54437534 370.38402383 162.54819759 367.65651804 162.55200195 364.92895508 C162.55826469 362.97945026 162.56491132 361.02994664 162.57191467 359.08044434 C162.58934318 353.77241496 162.59988169 348.46439461 162.6081202 343.1563437 C162.61326692 339.84125947 162.61934283 336.52617805 162.62563133 333.21109581 C162.64468942 322.84258784 162.65891868 312.47408702 162.6672433 302.10556489 C162.677016 290.13043414 162.70333387 278.15548822 162.74374419 266.1804226 C162.77389239 256.92939242 162.78871099 247.67841524 162.79202431 238.42733687 C162.79437647 232.89996411 162.80335839 227.37278866 162.82848549 221.84546852 C162.85174814 216.64406745 162.85600662 211.44299385 162.84572411 206.24155426 C162.84522818 204.33360137 162.85156528 202.42563247 162.86528015 200.51772881 C162.88297516 197.9099711 162.87590495 195.3033916 162.86274719 192.69563293 C162.87371644 191.94308835 162.88468568 191.19054377 162.89598733 190.41519481 C162.82840268 184.85540258 161.46904554 181.77382417 158.375 177.3125 C154.16403431 174.47150417 150.83871536 173.94216177 145.81884766 173.97192383 C144.53797272 173.97215042 143.25709778 173.97237701 141.93740845 173.97261047 C140.55462284 173.98792688 139.17184087 174.00357481 137.7890625 174.01953125 C136.36274666 174.02513246 134.93642501 174.02940008 133.51010132 174.03239441 C129.77158433 174.043802 126.03342174 174.07323325 122.29504395 174.10650635 C118.47408847 174.13729592 114.65307525 174.15091865 110.83203125 174.16601562 C103.3461933 174.19810751 95.86064647 174.24925354 88.375 174.3125 C88.39071045 172.45902954 88.39071045 172.45902954 88.40673828 170.56811523 C88.44306797 165.96300173 88.46594759 161.35790079 88.48486328 156.75268555 C88.49489136 154.76340603 88.50851717 152.77414114 88.52587891 150.78491211 C88.55026791 147.91776915 88.56151526 145.0508219 88.5703125 142.18359375 C88.58063507 141.30102402 88.59095764 140.41845428 88.60159302 139.50914001 C88.6031752 131.0277965 88.6031752 131.0277965 84.97265625 123.5703125 C79.73667783 119.70661341 76.02347775 119.16375525 69.68962097 119.16532898 C68.89908193 119.16165229 68.1085429 119.1579756 67.29404813 119.1541875 C64.63637387 119.1431455 61.9787387 119.13930597 59.32104492 119.13549805 C57.41903051 119.12923386 55.51701733 119.1225871 53.61500549 119.11558533 C48.44139581 119.09817326 43.26779538 119.0876233 38.09416366 119.0793798 C34.86300416 119.07423076 31.63184754 119.06815503 28.40069008 119.06186867 C18.29435022 119.0428172 8.18801768 119.02858518 -1.91833669 119.0202567 C-13.59066677 119.01047923 -25.26280748 118.98414618 -36.93507081 118.94375581 C-45.95341111 118.91361793 -54.97169704 118.89879009 -63.99008673 118.89547569 C-69.37824539 118.89312283 -74.7662017 118.88413152 -80.15430641 118.85901451 C-85.22275449 118.83576914 -90.29086649 118.83148635 -95.35935402 118.84177589 C-97.21935136 118.8422722 -99.07936506 118.83592388 -100.93931198 118.82221985 C-103.47950208 118.80455124 -106.01847946 118.81158175 -108.55867004 118.82475281 C-109.29399061 118.81378356 -110.02931117 118.80281432 -110.78691417 118.79151267 C-117.13884232 118.87098082 -120.68730371 121.28047962 -124.97062683 125.77230835 Z " fill="#3682BA" transform="translate(255.625,-0.3125)"/>
<path d="M0 0 C0.82741699 0.01047363 1.65483398 0.02094727 2.50732422 0.03173828 C3.40322266 0.03818359 4.29912109 0.04462891 5.22216797 0.05126953 C6.62789063 0.07640625 6.62789063 0.07640625 8.06201172 0.10205078 C9.00689453 0.11107422 9.95177734 0.12009766 10.92529297 0.12939453 C13.26278464 0.15300556 15.59977295 0.18593562 17.93701172 0.22705078 C19.93701172 4.22705078 21.93701172 8.22705078 23.93701172 12.22705078 C40.43701172 12.22705078 56.93701172 12.22705078 73.93701172 12.22705078 C75.58701172 8.26705078 77.23701172 4.30705078 78.93701172 0.22705078 C82.39555052 0.17329111 85.8532608 0.13349397 89.31201172 0.10205078 C90.29685547 0.08529297 91.28169922 0.06853516 92.29638672 0.05126953 C93.23740234 0.04482422 94.17841797 0.03837891 95.14794922 0.03173828 C96.4519165 0.01602783 96.4519165 0.01602783 97.78222656 0 C99.93701172 0.22705078 99.93701172 0.22705078 101.93701172 2.22705078 C102.18310738 5.15933418 102.18310738 5.15933418 102.17752075 8.99734497 C102.1792296 9.70142483 102.18093845 10.40550468 102.18269908 11.13092029 C102.18600624 13.50177016 102.17497037 15.87234006 102.1640625 18.24316406 C102.16349865 19.93801873 102.16381443 21.63287389 102.16494751 23.32772827 C102.16552305 27.9390755 102.15373632 32.5503194 102.13979959 37.16164255 C102.12732563 41.97696825 102.12612438 46.79229613 102.12374878 51.6076355 C102.11752418 60.730745 102.10110014 69.85380676 102.0810498 78.97689521 C102.05454891 91.30168654 102.04372607 103.62649086 102.03204536 115.95130348 C102.01322022 135.37658836 101.97338108 154.80177249 101.93701172 174.22705078 C66.95701172 174.22705078 31.97701172 174.22705078 -4.06298828 174.22705078 C-4.14359435 131.17445401 -4.14359435 131.17445401 -4.16064453 113.18408203 C-4.17252876 100.74412392 -4.18652722 88.30419283 -4.21386719 75.86425781 C-4.23376604 66.8058037 -4.24669637 57.74737142 -4.25116527 48.68889606 C-4.25377861 43.88997309 -4.25994475 39.09111262 -4.27444839 34.29220963 C-4.28797701 29.7795545 -4.29222054 25.2669879 -4.28920364 20.75431442 C-4.28975593 19.09421559 -4.2937614 17.43411394 -4.30139923 15.77403259 C-4.31128679 13.51502632 -4.30898009 11.25635837 -4.30349731 8.99734497 C-4.3053409 7.73080141 -4.30718449 6.46425785 -4.30908394 5.15933418 C-4.02449781 1.76842839 -3.54703109 0.3903833 0 0 Z " fill="#397FB8" transform="translate(307.06298828125,182.77294921875)"/>
<path d="M0 0 C53.79 0 107.58 0 163 0 C163 9.57 163 19.14 163 29 C155.875 29.25 155.875 29.25 153.66748047 29.29785156 C148.71025795 29.55330919 145.78138039 30.83575884 142 34 C132.30005727 53.39988545 139.3555216 77.3131826 139 99 C93.13 99 47.26 99 0 99 C0 66.33 0 33.66 0 0 Z " fill="#288DC0" transform="translate(155,145)"/>
<path d="M0 0 C1.75601563 0.00276538 1.75601563 0.00276538 3.54750633 0.00558662 C4.52399684 0.00302335 4.52399684 0.00302335 5.52021444 0.00040829 C7.7114188 -0.0028978 9.90231997 0.00813518 12.09349632 0.01904488 C13.6602738 0.01960875 15.2270518 0.0192929 16.79382896 0.01815987 C21.05601727 0.01758442 25.31809374 0.02936968 29.58025599 0.04330778 C34.03122743 0.05578325 38.48220125 0.05698312 42.93318748 0.0593586 C51.36568751 0.06558275 59.79813587 0.08200619 68.23061311 0.10205758 C77.8290186 0.12438752 87.42742651 0.13540269 97.02585149 0.14544845 C116.77417733 0.16637163 136.52245663 0.20156573 156.27074242 0.24609566 C156.27074242 2.88609566 156.27074242 5.52609566 156.27074242 8.24609566 C155.50652348 8.24756222 154.74230453 8.24902878 153.95492744 8.25053978 C135.36864863 8.28757477 116.78255828 8.34654538 98.1964283 8.4299984 C89.20833851 8.46982533 80.22033674 8.5021992 71.2321682 8.51709175 C63.39901362 8.53008939 55.56605241 8.55700551 47.73300672 8.60070872 C43.58456569 8.62336626 39.43636354 8.63900378 35.28785515 8.63797951 C31.38401094 8.63723541 27.48069563 8.65508451 23.57698822 8.68726349 C22.14351691 8.69579 20.70998645 8.69749378 19.2765007 8.69189835 C17.32043534 8.68527947 15.36433387 8.70550262 13.40837669 8.72711372 C12.31328663 8.7308009 11.21819656 8.73448807 10.08992195 8.73828697 C6.59726857 9.36740608 5.45882455 10.51106302 3.27074242 13.24609566 C1.32925294 16.92495449 -0.09758057 20.80894061 -1.60425758 24.68359566 C-2.03222633 25.72064644 -2.46019508 26.75769722 -2.90113258 27.82617378 C-3.29558571 28.82970894 -3.69003883 29.83324409 -4.09644508 30.86718941 C-4.45851051 31.77912056 -4.82057594 32.69105171 -5.19361305 33.63061714 C-5.85647398 36.86727581 -5.30705968 38.38338629 -3.72925758 41.24609566 C-0.93252404 42.64446243 1.379468 42.3869523 4.50954247 42.40431404 C5.15645259 42.40925202 5.80336271 42.41419 6.46987617 42.41927761 C8.64714794 42.4346898 10.82439013 42.44302324 13.00169945 42.45141792 C14.55862757 42.46099353 16.11555307 42.47100342 17.67247581 42.4814167 C21.90774279 42.50850626 26.14302096 42.52949385 30.37832689 42.54941869 C34.8012977 42.5712533 39.22423386 42.59865432 43.64717674 42.62547493 C52.02650906 42.67543603 60.40586058 42.72036216 68.78523052 42.76349729 C78.32320775 42.8128405 87.86115023 42.86776943 97.39909387 42.92317688 C117.02294592 43.03704939 136.64682985 43.14313947 156.27074242 43.24609566 C156.27074242 55.45609566 156.27074242 67.66609566 156.27074242 80.24609566 C154.95074242 80.24609566 153.63074242 80.24609566 152.27074242 80.24609566 C151.95846703 79.56506783 151.64619164 78.88403999 151.32445335 78.18237495 C149.90089878 75.09423094 148.46105433 72.01395739 147.02074242 68.93359566 C146.5296096 67.86174019 146.03847679 66.78988472 145.53246117 65.68554878 C145.04906273 64.65752144 144.56566429 63.62949409 144.06761742 62.57031441 C143.62772484 61.62245064 143.18783226 60.67458687 142.7346096 59.69799995 C141.0845681 56.93426299 140.05742302 55.84810356 137.27074242 54.24609566 C134.66606843 53.96637761 132.30542875 53.85590124 129.70409203 53.88965034 C128.94754829 53.88760597 128.19100456 53.8855616 127.41153526 53.88345528 C124.91513829 53.88045138 122.41940445 53.89891156 119.92308617 53.91797066 C118.18721238 53.92102898 116.45133614 53.92290454 114.71545982 53.92364693 C111.07973889 53.92824746 107.44423977 53.94266442 103.80858421 53.96484566 C99.14559032 53.9931488 94.48277092 54.00405966 89.81969929 54.00852776 C86.23638727 54.01268208 82.65311058 54.02249935 79.06981659 54.03440285 C77.35019844 54.0401041 75.63057691 54.04486329 73.91095352 54.04866982 C71.50990759 54.05553583 69.10900001 54.06916942 66.70799828 54.08496284 C65.99571068 54.0860807 65.28342308 54.08719856 64.54955101 54.0883503 C61.51350872 54.11483209 59.17563499 54.27779813 56.27074242 55.24609566 C55.28074242 58.21609566 55.28074242 58.21609566 54.27074242 61.24609566 C49.81574242 70.65109566 49.81574242 70.65109566 45.27074242 80.24609566 C19.20074242 80.24609566 -6.86925758 80.24609566 -33.72925758 80.24609566 C-34.72925758 78.24609566 -34.72925758 78.24609566 -33.81153297 75.349123 C-33.32469589 74.09028903 -32.82906229 72.83483811 -32.32691383 71.58203316 C-31.92348007 70.54943367 -31.92348007 70.54943367 -31.51189613 69.49597359 C-30.61287898 67.20123926 -29.70259235 64.91116248 -28.79175758 62.62109566 C-28.16268017 61.02509993 -27.53410743 59.42890521 -26.9060154 57.83252144 C-25.21425206 53.53970975 -23.5116721 49.25125615 -21.80744362 44.96338081 C-20.33675567 41.25689751 -18.87484316 37.54697347 -17.41234779 33.83725166 C-15.96007415 30.15715657 -14.50231689 26.4792544 -13.04270363 22.8020649 C-12.3340275 21.01547787 -11.62677085 19.22832713 -10.92093849 17.4406147 C-9.92994111 14.93357041 -8.93214625 12.4293422 -7.93238258 9.92578316 C-7.63712181 9.17534737 -7.34186104 8.42491158 -7.03765297 7.65173531 C-4.11282076 0.37085079 -4.11282076 0.37085079 0 0 Z " fill="#4277B5" transform="translate(137.72925758361816,269.75390434265137)"/>
<path d="M0 0 C0.78111064 -0.00326884 1.56222129 -0.00653768 2.36700195 -0.00990558 C4.99274264 -0.01720711 7.61793019 -0.00300954 10.24363708 0.01104736 C12.12258499 0.01025679 14.00153274 0.00816046 15.88047791 0.00485229 C20.9898534 -0.00029079 26.0990282 0.01327141 31.2083714 0.0303793 C36.54726509 0.04538901 41.88615588 0.04424063 47.22506714 0.04504395 C56.19076475 0.0487389 65.1563859 0.06371834 74.12205505 0.08624268 C85.64232881 0.1151253 97.16254099 0.12546627 108.68284702 0.12992477 C118.57207901 0.13390053 128.46129753 0.14640285 138.3505199 0.16027164 C141.53681645 0.16437581 144.72311251 0.1672988 147.90941048 0.17006683 C152.90882073 0.17495074 157.90819342 0.18513875 162.90758514 0.19950485 C164.74667204 0.20403751 166.585764 0.20686879 168.42485619 0.20791245 C170.92666745 0.20965119 173.42838388 0.21751563 175.93017578 0.22705078 C176.66547486 0.2261843 177.40077395 0.22531782 178.15835482 0.22442508 C183.17318015 0.25328472 183.17318015 0.25328472 185.40159607 1.36749268 C185.40159607 16.21749268 185.40159607 31.06749268 185.40159607 46.36749268 C183.09159607 46.36749268 180.78159607 46.36749268 178.40159607 46.36749268 C178.38177673 45.3177124 178.3619574 44.26793213 178.34153748 43.18634033 C178.26557409 39.29856006 178.17684309 35.41115864 178.08421326 31.52374268 C178.04588503 29.83989938 178.01103894 28.15597313 177.97972107 26.47198486 C177.9341532 24.05403961 177.87614684 21.6366674 177.81565857 19.21905518 C177.79833176 18.08616562 177.79833176 18.08616562 177.78065491 16.9303894 C177.7982954 12.68924069 177.7982954 12.68924069 175.40159607 9.36749268 C172.27810514 9.0642162 172.27810514 9.0642162 168.53086853 9.12025452 C167.81594915 9.1178401 167.10102977 9.11542569 166.36444616 9.11293811 C163.95681608 9.10727972 161.54944881 9.11598021 159.14183044 9.12457275 C157.42066374 9.1235004 155.69949738 9.12156242 153.97833252 9.11882019 C149.29454629 9.11396122 144.61085492 9.12164061 139.92708015 9.13177323 C135.03394295 9.14053677 130.14080886 9.13879662 125.24766541 9.13841248 C117.0292654 9.1393499 108.81090226 9.14804435 100.59251404 9.16168213 C91.08015118 9.17740847 81.5678287 9.18268028 72.05545378 9.18194658 C62.91873836 9.18133693 53.78203616 9.18643655 44.64532471 9.19473839 C40.75061948 9.19827607 36.85591892 9.20010233 32.96121216 9.2006321 C28.37795208 9.20163417 23.79472611 9.20771964 19.21147728 9.21779823 C17.52558285 9.22072744 15.83968449 9.22194776 14.15378761 9.2213707 C11.8599296 9.22088252 9.56616821 9.22651079 7.27232361 9.23377991 C5.98625465 9.23545575 4.7001857 9.2371316 3.37514496 9.23885822 C0.47295137 9.16175697 0.47295137 9.16175697 -1.59840393 10.36749268 C-1.66842246 25.06628477 -1.7213569 39.76505486 -1.75384045 54.46397972 C-1.76932267 61.28864485 -1.79043786 68.11320647 -1.82472229 74.93780518 C-1.85776787 81.51892497 -1.87523714 88.09996518 -1.88303566 94.68117142 C-1.88859607 97.19709597 -1.89945352 99.71301436 -1.9155941 102.22889328 C-1.93724332 105.74185872 -1.94037608 109.25437405 -1.9389801 112.76739502 C-1.94976593 113.81683792 -1.96055176 114.86628082 -1.97166443 115.94752502 C-1.96754044 116.90107376 -1.96341644 117.8546225 -1.95916748 118.83706665 C-1.96193286 119.66852392 -1.96469824 120.49998119 -1.96754742 121.35663414 C-1.84573007 122.02021746 -1.72391272 122.68380077 -1.59840393 123.36749268 C1.85408171 125.66914977 3.15958909 125.62471457 7.22915649 125.64596558 C8.44491867 125.65712906 9.66068085 125.66829254 10.9132843 125.67979431 C12.26249664 125.68215933 13.61170932 125.68433497 14.96092224 125.68634033 C16.38007174 125.69563733 17.79921576 125.70580566 19.21835327 125.71678162 C23.07341294 125.74412152 26.92843598 125.75924279 30.78356719 125.77220964 C34.81150379 125.78782277 38.83936541 125.81461876 42.86724854 125.84024048 C50.49571982 125.88706053 58.12420517 125.92378899 65.75274688 125.95691335 C74.43709894 125.99511197 83.12137575 126.04452803 91.80566442 126.09489751 C109.67091993 126.19826534 127.53622134 126.28750994 145.40159607 126.36749268 C145.40159607 128.67749268 145.40159607 130.98749268 145.40159607 133.36749268 C125.35704155 133.41416154 105.31249801 133.44945638 85.26790047 133.47111702 C75.961373 133.48144062 66.65487925 133.4955216 57.34837341 133.51837158 C49.23919811 133.53827235 41.1300472 133.55120122 33.02084816 133.55566967 C28.72494415 133.55828268 24.42910998 133.56444676 20.1332283 133.57895279 C16.09333732 133.59248444 12.05354522 133.59672433 8.01363373 133.59370804 C6.52769052 133.59426019 5.04174414 133.59826389 3.55582047 133.60590363 C1.53341793 133.61579528 -0.48903716 133.61228371 -2.51145935 133.60800171 C-3.64526472 133.60984529 -4.77907009 133.61168888 -5.9472332 133.61358833 C-8.59840393 133.36749268 -8.59840393 133.36749268 -10.59840393 131.36749268 C-10.85287952 129.13075352 -10.85287952 129.13075352 -10.85910034 126.28779602 C-10.86618515 125.21237045 -10.87326996 124.13694489 -10.88056946 123.02893066 C-10.87809204 121.84393982 -10.87561462 120.65894897 -10.87306213 119.43804932 C-10.87817307 118.19411911 -10.883284 116.9501889 -10.8885498 115.66856384 C-10.90009289 112.25115468 -10.90251544 108.83398754 -10.89998651 105.41657567 C-10.8989186 102.56607749 -10.90379555 99.71560181 -10.90859193 96.86510843 C-10.91969676 90.14135814 -10.92011913 83.41766372 -10.91407776 76.69390869 C-10.90803675 69.75243261 -10.92034983 62.81115916 -10.94164783 55.86971766 C-10.95924895 49.91467718 -10.96526753 43.95970129 -10.96201009 38.00463575 C-10.9601946 34.44591131 -10.96285953 30.88733139 -10.97672462 27.32863045 C-10.99160331 23.36111587 -10.98234584 19.39386042 -10.97071838 15.42633057 C-10.97836212 14.24336395 -10.98600586 13.06039734 -10.99388123 11.84158325 C-10.98686691 10.76333786 -10.9798526 9.68509247 -10.97262573 8.57417297 C-10.97279347 7.63561997 -10.97296122 6.69706697 -10.97313404 5.73007298 C-10.59840393 3.36749268 -10.59840393 3.36749268 -9.54991531 1.56504345 C-6.52219142 -0.29292834 -3.44533548 -0.03786416 0 0 Z " fill="#278FC1" transform="translate(148.59840393066406,127.63250732421875)"/>
<path d="M0 0 C2.4375 0.75 2.4375 0.75 4.4375 2.75 C4.6875 5.75 4.6875 5.75 4.4375 8.75 C2.4375 10.75 2.4375 10.75 -1.0625 11.0625 C-2.795 10.9078125 -2.795 10.9078125 -4.5625 10.75 C-6.5625 7.75 -6.5625 7.75 -6.375 4.6875 C-5.32105756 0.87709272 -4.04091296 -0.39423541 0 0 Z " fill="#4E6CB0" transform="translate(356.5625,369.25)"/>
</svg>
